<svg xmlns="http://www.w3.org/2000/svg" width="200" height="200" viewBox="0 0 200 200">
  <g id="Grupo_262" data-name="Grupo 262" transform="translate(-1780 -463)">
    <circle id="Elipse_23" data-name="Elipse 23" cx="100" cy="100" r="100" transform="translate(1780 463)" fill="#4cbc31"/>
    <path id="Unión_16" data-name="Unión 16" d="M48.3,103.124a2.529,2.529,0,0,1-1.983-.778L31.4,86.961a2.61,2.61,0,0,1-.581-.921l-30.059-31a2.716,2.716,0,0,1,0-3.77L15.677,35.9a2.523,2.523,0,0,1,3.655,0L48.3,65.767,111.318.784a2.526,2.526,0,0,1,3.657,0L129.9,16.169a2.724,2.724,0,0,1,0,3.759l-64.111,66.1a2.609,2.609,0,0,1-.586.928L50.287,102.346a2.533,2.533,0,0,1-1.825.784C48.406,103.13,48.355,103.127,48.3,103.124Z" transform="translate(1816.102 511.134)" fill="#fff"/>
  </g>
</svg>
