<svg xmlns="http://www.w3.org/2000/svg" width="50" height="50" viewBox="0 0 50 50">
  <g id="Grupo_249" data-name="Grupo 249" transform="translate(-2249 165.201)">
    <path id="Rectángulo_78" data-name="Rectángulo 78" d="M0,0H50a0,0,0,0,1,0,0V23.542a4,4,0,0,1-4,4H4a4,4,0,0,1-4-4V0A0,0,0,0,1,0,0Z" transform="translate(2249 -142.744)"/>
    <path id="Trazado_49" data-name="Trazado 49" d="M6.706.778C8.938-.859,23.786.051,23.786.051V18.83H0S4.474,2.415,6.706.778Z" transform="translate(2249 -165)"/>
    <path id="Trazado_50" data-name="Trazado 50" d="M17.081.778C14.849-.859,0,.051,0,.051V18.83H23.786S19.312,2.415,17.081.778Z" transform="translate(2275.214 -165)"/>
  </g>
</svg>
