<svg xmlns="http://www.w3.org/2000/svg" width="27.452" height="50" viewBox="0 0 27.452 50">
  <path id="Trazado_69" data-name="Trazado 69" d="M11.884,5.393A22.149,22.149,0,0,1,6.416,3.927,19.81,19.81,0,0,1,1.85,1.334V-4.7h7.5v3.89A11.811,11.811,0,0,0,12.391.348a15.532,15.532,0,0,0,3.664.423A7.027,7.027,0,0,0,20.508-.441,4.367,4.367,0,0,0,22.03-4.077a4.168,4.168,0,0,0-.9-2.734,8.191,8.191,0,0,0-2.452-1.945,48.2,48.2,0,0,0-4.594-2.086A47.859,47.859,0,0,1,7.4-14.055a12.024,12.024,0,0,1-3.861-3.551,8.638,8.638,0,0,1-1.353-4.9,8.2,8.2,0,0,1,2.649-6.4,13.566,13.566,0,0,1,7.046-3.129V-38.35H18.7v6.144a18.746,18.746,0,0,1,9.977,4.059v5.581h-7.5v-3.608a11.492,11.492,0,0,0-5.693-1.3,7.6,7.6,0,0,0-4.425,1.127A4.1,4.1,0,0,0,9.46-22.736a4.115,4.115,0,0,0,.93,2.706,7.638,7.638,0,0,0,2.283,1.86,35.518,35.518,0,0,0,3.608,1.635l1.184.507Q22.2-14,24.426-12.758a10.125,10.125,0,0,1,3.551,3.213A9.037,9.037,0,0,1,29.3-4.415a9.04,9.04,0,0,1-2.762,6.68A12.525,12.525,0,0,1,18.7,5.506V11.65H11.884Z" transform="translate(-1.85 38.35)"/>
</svg>
