<svg xmlns="http://www.w3.org/2000/svg" width="50" height="50.001" viewBox="0 0 50 50.001">
  <path id="Sustracción_7" data-name="Sustracción 7" d="M-206,25h-13a7.008,7.008,0,0,1-7-7V-18a7.008,7.008,0,0,1,7-7h36a7.008,7.008,0,0,1,7,7V18a7.008,7.008,0,0,1-7,7h-14.429l0-17.143h6.63L-189.446,0h-7.984V-8.465l0,2.693a4.854,4.854,0,0,1,.781-2.159l.04-.049a3.768,3.768,0,0,1,2.2-1.4c1.429-.143,3.417-.164,4.476-.164.337,0,.541,0,.541,0v-6.768c-.022,0-3.036-.419-5.017-.5-.366-.016-.725-.024-1.066-.024a12.975,12.975,0,0,0-1.96.115v.007A8.837,8.837,0,0,0-206-7.857V0h-7.142V7.857H-206V25Z" transform="translate(226 25)" fill="#fff"/>
</svg>
