<svg xmlns="http://www.w3.org/2000/svg" width="50" height="50" viewBox="0 0 50 50">
  <path id="Unión_10" data-name="Unión 10" d="M-210.731,23.035a24.9,24.9,0,0,1-7.946-5.358,24.9,24.9,0,0,1-5.358-7.946A24.849,24.849,0,0,1-226,0a24.849,24.849,0,0,1,1.965-9.731,24.92,24.92,0,0,1,5.358-7.947,24.9,24.9,0,0,1,7.946-5.358A24.835,24.835,0,0,1-201-25a24.84,24.84,0,0,1,9.731,1.965,24.913,24.913,0,0,1,7.845,5.257l-6.231,6.418a16,16,0,0,0-10.988-4.353A16.09,16.09,0,0,0-216.715.357a16.09,16.09,0,0,0,16.072,16.072A16.1,16.1,0,0,0-185.368,5.357h-15.989V-3.495h16.318l-.014-.058h8.8A25.326,25.326,0,0,1-176,0a24.835,24.835,0,0,1-1.965,9.731,24.9,24.9,0,0,1-5.358,7.946,24.921,24.921,0,0,1-7.947,5.358A24.84,24.84,0,0,1-201,25,24.835,24.835,0,0,1-210.731,23.035Z" transform="translate(226 25)" fill="#fff"/>
</svg>
