<svg xmlns="http://www.w3.org/2000/svg" width="200" height="129" viewBox="0 0 200 129">
  <g id="Grupo_11" data-name="Grupo 11" transform="translate(-1041 -411)">
    <g id="Grupo_10" data-name="Grupo 10" transform="translate(1041 411)">
      <g id="Grupo_9" data-name="Grupo 9" transform="translate(0)">
        <g id="Grupo_8" data-name="Grupo 8">
          <g id="Grupo_7" data-name="Grupo 7">
            <g id="Grupo_6" data-name="Grupo 6">
              <g id="Grupo_5" data-name="Grupo 5">
                <g id="Grupo_4" data-name="Grupo 4">
                  <g id="Grupo_3" data-name="Grupo 3">
                    <g id="Grupo_2" data-name="Grupo 2">
                      <g id="Grupo_1" data-name="Grupo 1">
                        <g id="Grupo_86" data-name="Grupo 86">
                          <g id="Grupo_85" data-name="Grupo 85">
                            <g id="Grupo_84" data-name="Grupo 84">
                              <path id="Trazado_28" data-name="Trazado 28" d="M2.2-77H62.426v6.978a46.849,46.849,0,0,1-8.538,3.4A57.523,57.523,0,0,1,44.8-64.694V39.6H80.236l12.3-32.866h7.528q.734,4.224,1.378,9.916t1,11.934q.368,6.242.55,12.3t0,10.65H2.2V44.558a57.727,57.727,0,0,1,7.988-3.488,44.784,44.784,0,0,1,7.07-1.836V-64.7A39.738,39.738,0,0,1,2.2-70.022Z" transform="translate(-2.2 77)" fill="#420000"/>
                              <path id="Sustracción_1" data-name="Sustracción 1" d="M64.568,128.5a65.116,65.116,0,0,1-13.04-1.317A64.466,64.466,0,0,1,1.312,76.94,64.577,64.577,0,0,1,55.434,0,52.8,52.8,0,1,0,128.5,73.062,64.493,64.493,0,0,1,64.568,128.5Z" transform="translate(71.504 0.504)" fill="#420000"/>
                              <path id="Trazado_3" data-name="Trazado 3" d="M1040.977,312.568s3.328-9.42,6.8-10.832,3.464-11.8,3.464-11.8a30.032,30.032,0,0,1,6.672-14.37c5.774-6.8,8.176-9.342,8.176-9.342a23.1,23.1,0,0,1,5.94-4.29,11.252,11.252,0,0,0,6.048-6.048,4.51,4.51,0,0,0-1.2-4.956h-2.16l-1.572-1.8-1.122,2.292h-1.752s3.28-5.638,3.28-7.48-.134-6.368-1.752-8.838c-.74-1.132-4.366,2.428-9.568,5.57a141,141,0,0,1-13.3,6.828h-2.56a7.175,7.175,0,0,0-5.076-.876,112.757,112.757,0,0,0-12.4,4.8l-8.906-.426a12,12,0,0,0-6.514,1.572c-2.6,1.8,4.716,10.466,4.716,10.466l-3.5,4.538-2.65,4.312s-2.334,1.472-8.726,9.446c-.422.526,3.362,9.914,8.2,15C1025.717,311.734,1040.977,312.568,1040.977,312.568Z" transform="translate(-898.169 -214.218)" fill="#420000"/>
                            </g>
                          </g>
                        </g>
                      </g>
                    </g>
                  </g>
                </g>
              </g>
            </g>
          </g>
        </g>
      </g>
    </g>
  </g>
</svg>
