<svg xmlns="http://www.w3.org/2000/svg" width="200" height="200" viewBox="0 0 200 200">
  <g id="Grupo_18" data-name="Grupo 18" transform="translate(-504 -502)">
    <g id="Grupo_17" data-name="Grupo 17">
      <g id="Grupo_16" data-name="Grupo 16">
        <g id="Grupo_15" data-name="Grupo 15">
          <g id="Grupo_14" data-name="Grupo 14">
            <g id="Grupo_13" data-name="Grupo 13">
              <g id="Grupo_12" data-name="Grupo 12">
                <rect id="Rect치ngulo_1" data-name="Rect치ngulo 1" width="200" height="200" transform="translate(504 502)" fill="none"/>
                <g id="Grupo_11" data-name="Grupo 11" transform="translate(-1023.626 203)">
                  <g id="Grupo_10" data-name="Grupo 10" transform="translate(1535 339)">
                    <g id="Grupo_9" data-name="Grupo 9" transform="translate(0)">
                      <g id="Grupo_8" data-name="Grupo 8">
                        <g id="Grupo_7" data-name="Grupo 7">
                          <g id="Grupo_6" data-name="Grupo 6">
                            <g id="Grupo_5" data-name="Grupo 5">
                              <g id="Grupo_4" data-name="Grupo 4">
                                <g id="Grupo_3" data-name="Grupo 3">
                                  <g id="Grupo_2" data-name="Grupo 2">
                                    <g id="Grupo_1" data-name="Grupo 1">
                                      <g id="Grupo_86" data-name="Grupo 86">
                                        <g id="Grupo_85" data-name="Grupo 85">
                                          <g id="Grupo_84" data-name="Grupo 84">
                                            <path id="Trazado_28" data-name="Trazado 28" d="M2.2-77H58.11v6.478a43.491,43.491,0,0,1-7.926,3.156,53.4,53.4,0,0,1-8.437,1.79V31.243h32.9L86.064.733h6.988q.681,3.921,1.279,9.205t.928,11.079q.342,5.795.511,11.42t0,9.887H2.2V35.846a53.59,53.59,0,0,1,7.416-3.238,41.575,41.575,0,0,1,6.563-1.7V-65.58A36.89,36.89,0,0,1,2.2-70.522Z" transform="translate(-2.2 77)" fill="#420000"/>
                                            <path id="Sustracci칩n_1" data-name="Sustracci칩n 1" d="M59.941,119.287a60.449,60.449,0,0,1-12.105-1.222A59.846,59.846,0,0,1,1.218,71.426,59.949,59.949,0,0,1,51.461,0a49.016,49.016,0,1,0,67.826,67.826,59.871,59.871,0,0,1-59.346,51.461Z" transform="translate(66.379 0.468)" fill="#420000"/>
                                            <path id="Trazado_3" data-name="Trazado 3" d="M1038.276,307s3.089-8.745,6.313-10.056,3.216-10.954,3.216-10.954a27.879,27.879,0,0,1,6.194-13.34c5.36-6.313,7.59-8.672,7.59-8.672A21.441,21.441,0,0,1,1067.1,260a10.446,10.446,0,0,0,5.615-5.615,4.187,4.187,0,0,0-1.114-4.6H1069.6l-1.459-1.671-1.042,2.128h-1.626s3.045-5.234,3.045-6.944-.125-5.912-1.626-8.2c-.687-1.051-4.053,2.254-8.882,5.171a130.9,130.9,0,0,1-12.343,6.339h-2.377a6.661,6.661,0,0,0-4.712-.813,104.68,104.68,0,0,0-11.511,4.456l-8.268-.4a11.141,11.141,0,0,0-6.047,1.459c-2.414,1.671,4.378,9.716,4.378,9.716l-3.253,4.213-2.46,4s-2.167,1.366-8.1,8.769c-.392.488,3.121,9.2,7.612,13.925C1024.109,306.227,1038.276,307,1038.276,307Z" transform="translate(-905.702 -215.7)" fill="#420000"/>
                                          </g>
                                        </g>
                                      </g>
                                    </g>
                                  </g>
                                </g>
                              </g>
                            </g>
                          </g>
                        </g>
                      </g>
                    </g>
                  </g>
                </g>
              </g>
            </g>
          </g>
        </g>
      </g>
    </g>
  </g>
</svg>
