<svg xmlns="http://www.w3.org/2000/svg" width="102.626" height="64.5" viewBox="0 0 102.626 64.5">
  <g id="Grupo_86" data-name="Grupo 86" transform="translate(-280 -88)">
    <g id="Grupo_85" data-name="Grupo 85">
      <g id="Grupo_84" data-name="Grupo 84">
        <path id="Trazado_28" data-name="Trazado 28" d="M2.2-77H32.313v3.489a23.424,23.424,0,0,1-4.269,1.7,28.761,28.761,0,0,1-4.544.964V-18.7H41.218l6.151-16.433h3.764q.367,2.112.689,4.958t.5,5.967q.184,3.121.275,6.151t0,5.325H2.2v-3.489a28.863,28.863,0,0,1,3.994-1.744,22.392,22.392,0,0,1,3.535-.918V-70.849A19.869,19.869,0,0,1,2.2-73.511Z" transform="translate(277.8 165)" fill="#420000"/>
        <path id="Sustracción_1" data-name="Sustracción 1" d="M32.284,64.248a32.54,32.54,0,0,1-6.513-.657A32.233,32.233,0,0,1,.656,38.47,32.61,32.61,0,0,1,.548,26.007,32.295,32.295,0,0,1,27.717,0,26.4,26.4,0,1,0,64.248,36.531,32.306,32.306,0,0,1,38.241,63.7a32.567,32.567,0,0,1-5.957.548Z" transform="translate(318.378 88.252)" fill="#420000"/>
        <path id="Trazado_3" data-name="Trazado 3" d="M1022.13,273.729s1.664-4.71,3.4-5.416,1.732-5.9,1.732-5.9a15.016,15.016,0,0,1,3.336-7.185c2.887-3.4,4.088-4.671,4.088-4.671a11.548,11.548,0,0,1,2.97-2.145,5.626,5.626,0,0,0,3.024-3.024,2.255,2.255,0,0,0-.6-2.478H1039l-.786-.9-.561,1.146h-.876s1.64-2.819,1.64-3.74-.067-3.184-.876-4.419c-.37-.566-2.183,1.214-4.784,2.785a70.508,70.508,0,0,1-6.648,3.414h-1.28a3.588,3.588,0,0,0-2.538-.438,56.369,56.369,0,0,0-6.2,2.4l-4.453-.213a6,6,0,0,0-3.257.786c-1.3.9,2.358,5.233,2.358,5.233l-1.752,2.269-1.325,2.156s-1.167.736-4.363,4.723c-.211.263,1.681,4.957,4.1,7.5C1014.5,273.312,1022.13,273.729,1022.13,273.729Z" transform="translate(-668.1 -136.554)" fill="#420000"/>
      </g>
    </g>
  </g>
</svg>
