<svg xmlns="http://www.w3.org/2000/svg" width="40.001" height="39.998" viewBox="0 0 40.001 39.998">
  <path id="Sustracción_11" data-name="Sustracción 11" d="M-10156,15a19.876,19.876,0,0,1-14.145-5.858A19.867,19.867,0,0,1-10176-5a19.867,19.867,0,0,1,5.857-14.142A19.876,19.876,0,0,1-10156-25a19.868,19.868,0,0,1,14.141,5.858A19.868,19.868,0,0,1-10136-5a19.868,19.868,0,0,1-5.858,14.142A19.868,19.868,0,0,1-10156,15Zm-13.369-23.8a1,1,0,0,0-1,1v5.041a1,1,0,0,0,1,1h9.564V7.8a1,1,0,0,0,1,1h5.041a1,1,0,0,0,1-1V-1.76h9.562a1,1,0,0,0,1-1V-7.8a1,1,0,0,0-1-1h-9.562v-9.564a1,1,0,0,0-1-1h-5.041a1,1,0,0,0-1,1V-8.8Z" transform="translate(10176.001 25)"/>
</svg>
