<svg xmlns="http://www.w3.org/2000/svg" width="40.001" height="39.998" viewBox="0 0 40.001 39.998">
  <path id="Sustracción_12" data-name="Sustracción 12" d="M-10156,15a19.876,19.876,0,0,1-14.145-5.858A19.867,19.867,0,0,1-10176-5a19.867,19.867,0,0,1,5.857-14.142A19.876,19.876,0,0,1-10156-25a19.868,19.868,0,0,1,14.141,5.858A19.868,19.868,0,0,1-10136-5a19.868,19.868,0,0,1-5.858,14.142A19.868,19.868,0,0,1-10156,15Zm-13.287-23.426a1,1,0,0,0-1,1v5.143a1,1,0,0,0,1,1h26.572a1,1,0,0,0,1-1V-7.429a1,1,0,0,0-1-1Z" transform="translate(10176.001 25)"/>
</svg>
