<svg xmlns="http://www.w3.org/2000/svg" width="48" height="40" viewBox="0 0 48 40">
  <path id="Unión_2" data-name="Unión 2" d="M35.3,35.509A4.36,4.36,0,0,1,36.851,32.2H19.4a4.359,4.359,0,0,1,1.548,3.307A4.645,4.645,0,0,1,16.158,40a4.645,4.645,0,0,1-4.786-4.491,4.477,4.477,0,0,1,2.7-4.042L7.989,5.024s-6.825.027-7.017,0S-1.624,0,1.933,0h9.8c.865,0,1.782,5.024,1.782,5.024s32.92.027,34.267.659-4.134,19.484-4.134,19.484H17.7l.961,2.886s22.591-.451,23.841,0c.9.326.2,2.347-.26,3.443a4.472,4.472,0,0,1,2.635,4.013,4.8,4.8,0,0,1-9.572,0Z" transform="translate(0)" fill="#fff"/>
</svg>
