<svg xmlns="http://www.w3.org/2000/svg" width="39.999" height="40" viewBox="0 0 39.999 40">
  <path id="Unión_18" data-name="Unión 18" d="M-191.281,14.74l-8.158-8.158a3.54,3.54,0,0,1-1.028-2.8,15.856,15.856,0,0,1-9.559,3.172,15.87,15.87,0,0,1-11.3-4.679A15.868,15.868,0,0,1-226-9.025a15.87,15.87,0,0,1,4.679-11.3A15.87,15.87,0,0,1-210.025-25a15.873,15.873,0,0,1,11.3,4.679,15.872,15.872,0,0,1,4.678,11.3A15.858,15.858,0,0,1-197.222.534a3.544,3.544,0,0,1,2.8,1.027l8.158,8.159a.887.887,0,0,1,0,1.255l-3.765,3.766a.885.885,0,0,1-.628.26A.885.885,0,0,1-191.281,14.74ZM-218.012-9.025a8,8,0,0,0,7.988,7.987,8,8,0,0,0,7.987-7.987,8,8,0,0,0-7.987-7.988A8,8,0,0,0-218.012-9.025Z" transform="translate(226 25)"/>
</svg>
