<svg xmlns="http://www.w3.org/2000/svg" width="45" height="50" viewBox="0 0 45 50">
  <path id="Sustracción_10" data-name="Sustracción 10" d="M-203.589,25h0a36.3,36.3,0,0,1-7.106-3.043,33.181,33.181,0,0,1-6.054-4.265,24.15,24.15,0,0,1-5.205-6.5c-2.86-5.32-3.736-12.483-3.967-17.555a74.66,74.66,0,0,1,.185-9.83l22.147-8.8,21.914,8.8,0,.007a58.427,58.427,0,0,1,.666,9.886,45.008,45.008,0,0,1-.98,8.939,24.9,24.9,0,0,1-3.469,8.553,36.678,36.678,0,0,1-11.625,10.7A36.684,36.684,0,0,1-203.589,25Zm-.087-45.537-17.413,7.02V-.487h17.352V19.86a14.706,14.706,0,0,0,4.107-1.4,22.829,22.829,0,0,0,8.316-7.2c5.548-7.655,4.982-11.7,4.976-11.744h-17.337Z" transform="translate(226 25)"/>
</svg>
