<svg id="Btn_Trash" data-name="Btn Trash" xmlns="http://www.w3.org/2000/svg" width="32" height="35.911" viewBox="0 0 32 35.911">
  <g id="Grupo_252" data-name="Grupo 252" transform="translate(-1109.999 -456.089)">
    <path id="Unión_15" data-name="Unión 15" d="M-10175-18.089a1,1,0,0,1-1-1v-3a1,1,0,0,1,1-1h8.234l1.093-1.91h9.889l1.144,1.91h9.641a1,1,0,0,1,1,1v3a1,1,0,0,1-1,1Z" transform="translate(11286 481.088)"/>
    <g id="Grupo_253" data-name="Grupo 253">
      <path id="Rectángulo_99" data-name="Rectángulo 99" d="M0,0H27a0,0,0,0,1,0,0V24a3,3,0,0,1-3,3H3a3,3,0,0,1-3-3V0A0,0,0,0,1,0,0Z" transform="translate(1112 465)"/>
      <g id="Grupo_252-2" data-name="Grupo 252">
        <rect id="Rectángulo_101" data-name="Rectángulo 101" width="3" height="19" rx="1.5" transform="translate(1117 469)" fill="#fff"/>
        <rect id="Rectángulo_102" data-name="Rectángulo 102" width="3" height="19" rx="1.5" transform="translate(1124 469)" fill="#fff"/>
        <rect id="Rectángulo_103" data-name="Rectángulo 103" width="3" height="19" rx="1.5" transform="translate(1131 469)" fill="#fff"/>
      </g>
    </g>
  </g>
</svg>
