<svg xmlns="http://www.w3.org/2000/svg" width="40" height="39.999" viewBox="0 0 40 39.999">
  <g id="Grupo_242" data-name="Grupo 242" transform="translate(-1588.999 -17.075)">
    <path id="Sustracción_2" data-name="Sustracción 2" d="M36,16H4a4,4,0,0,1-4-4V10A10.011,10.011,0,0,1,10,0h3.069a11.137,11.137,0,0,0,7.385,2.823A11.139,11.139,0,0,0,27.84,0H30A10.011,10.011,0,0,1,40,10v2A4,4,0,0,1,36,16Z" transform="translate(1588.999 41.075)" fill="#fff"/>
    <path id="Trazado_54" data-name="Trazado 54" d="M10,0A10,10,0,1,1,0,10,10,10,0,0,1,10,0Z" transform="translate(1599.62 17.075)" fill="#fff"/>
  </g>
</svg>
