<svg xmlns="http://www.w3.org/2000/svg" width="57.192" height="57.141" viewBox="0 0 57.192 57.141">
  <g id="Grupo_244" data-name="Grupo 244" transform="translate(-1558.385 -2454.233)">
    <path id="Trazado_42" data-name="Trazado 42" d="M1788.355,2516.4c-9.529-20.564,7.453-33.073,7.453-33.073a25.679,25.679,0,0,1,24.436-2.369c13.68,5.781,14.624,19.711,14.624,19.711s3.019,13.646-10,23.123-26.676,1.872-26.676,1.872l-13.02,3.222Z" transform="translate(-222.64 -21.632)" fill="none" stroke="#fff" stroke-width="6"/>
    <path id="Trazado_43" data-name="Trazado 43" d="M1804.836,2497.787h0a6.072,6.072,0,0,0-2.526,4.136c-.574,3.026,4.191,8.55,4.191,8.55s3.789,4.774,12.343,6.772c2.87.111,3.23-.734,4.1-1.637,1.981-2.8.947-3.581.947-3.581s-4.908-2.3-5.339-2.3-2.727,2.8-2.727,2.8-6.114-2.526-8.152-6.967c-.112-.244,2.011-2.439,1.866-2.831a22.945,22.945,0,0,1-1.349-4s-.122-.451-1-.944A3.56,3.56,0,0,0,1804.836,2497.787Z" transform="translate(-226 -25)" fill="#fff"/>
  </g>
</svg>
